<svg aria-hidden="true" style="position:absolute;width:0;height:0;overflow:hidden" xmlns="http://www.w3.org/2000/svg">
  <defs>
    <symbol id="icon-insta" viewBox="0 0 32 32">
      <path d="M23.385 0H8.616A8.623 8.623 0 0 0 .001 8.615v14.769a8.623 8.623 0 0 0 8.615 8.615h14.769A8.627 8.627 0 0 0 32 23.384V8.615A8.627 8.627 0 0 0 23.385 0zM16 23.385a7.389 7.389 0 0 1-6.823-4.558 7.384 7.384 0 1 1 6.822 4.559zm9.231-14.77a1.847 1.847 0 1 1 0-3.695 1.847 1.847 0 0 1 0 3.695zM20.923 16a4.92 4.92 0 0 1-5.883 4.828 4.93 4.93 0 0 1-2.521-1.347 4.93 4.93 0 0 1-1.067-5.365 4.925 4.925 0 0 1 8.029-1.597A4.923 4.923 0 0 1 20.923 16z"/>
    </symbol>
    <symbol id="icon-youtube" viewBox="0 0 32 32">
      <path d="m18.672 15.722-3.743-1.747c-.327-.152-.595.018-.595.38v3.29c0 .362.268.532.595.38l3.742-1.747c.328-.153.328-.403.002-.557zM16 0C7.163 0 0 7.163 0 16s7.163 16 16 16 16-7.163 16-16S24.837 0 16 0zm0 22.5c-8.19 0-8.333-.738-8.333-6.5S7.81 9.5 16 9.5s8.333.738 8.333 6.5-.143 6.5-8.333 6.5z"/>
    </symbol>
    <symbol id="icon-fb" viewBox="0 0 32 32">
      <path d="M32 16.04C32 7.186 24.832 0 16 0S0 7.186 0 16.04c0 7.763 5.504 14.228 12.8 15.719V20.852H9.6V16.04h3.2v-4.01c0-3.096 2.512-5.614 5.6-5.614h4v4.812h-3.2c-.88 0-1.6.722-1.6 1.604v3.208h4.8v4.812h-4.8V32c8.08-.802 14.4-7.635 14.4-15.96z"/>
    </symbol>
    <symbol id="icon-mobile-open" viewBox="0 0 77 32">
      <path stroke-linejoin="round" stroke-linecap="round" stroke-width="8" d="M4 26.4h67.2M4 4h67.2"/>
    </symbol>
    <symbol id="icon-mobile-close" viewBox="0 0 32 32">
      <path d="M32 3.721 28.279 0 16 12.279 3.721 0 0 3.721 12.279 16 0 28.279 3.721 32 16 19.721 28.279 32 32 28.279 19.721 16 32 3.721z"/>
    </symbol>
    <symbol id="icon-apple-icon" viewBox="0 0 32 32">
      <path d="M24.734 17.003c-.04-4.053 3.305-5.996 3.454-6.093-1.88-2.751-4.808-3.127-5.851-3.171-2.492-.252-4.862 1.467-6.127 1.467-1.261 0-3.213-1.43-5.28-1.392-2.716.04-5.221 1.579-6.619 4.012-2.822 4.897-.723 12.151 2.028 16.123 1.344 1.944 2.947 4.127 5.051 4.049 2.026-.081 2.793-1.311 5.242-1.311s3.138 1.311 5.283 1.271c2.18-.041 3.562-1.981 4.897-3.931 1.543-2.255 2.179-4.439 2.216-4.551-.048-.022-4.252-1.632-4.294-6.473zM20.705 5.11C21.822 3.755 22.576 1.875 22.37 0c-1.609.066-3.559 1.072-4.713 2.423-1.036 1.199-1.942 3.113-1.699 4.951 1.796.14 3.629-.913 4.747-2.264z"/>
    </symbol>
  </defs>
</svg>
