<?xml version="1.0" standalone="no"?>
<!DOCTYPE svg PUBLIC "-//W3C//DTD SVG 20010904//EN"
 "http://www.w3.org/TR/2001/REC-SVG-20010904/DTD/svg10.dtd">
<svg version="1.0" xmlns="http://www.w3.org/2000/svg"
 width="1024.000000pt" height="1024.000000pt" viewBox="0 0 1024.000000 1024.000000"
 preserveAspectRatio="xMidYMid meet">

<g transform="translate(0.000000,1024.000000) scale(0.100000,-0.100000)"
fill="#000000" stroke="none">
<path d="M3597 7100 c-472 -46 -817 -265 -963 -611 -19 -44 -43 -126 -55 -182
-28 -136 -23 -397 11 -522 67 -252 227 -442 475 -564 125 -62 230 -99 625
-217 173 -52 357 -110 408 -130 227 -87 323 -208 309 -391 -7 -95 -39 -165
-107 -232 -153 -149 -436 -197 -720 -120 -154 42 -280 136 -343 256 -35 69
-67 164 -67 202 0 21 -1 21 -350 21 l-351 0 5 -32 c3 -18 8 -60 12 -93 3 -33
16 -101 29 -151 119 -468 508 -757 1100 -815 142 -14 388 -7 525 16 408 66
722 269 869 562 70 141 108 348 98 537 -19 348 -190 602 -514 764 -100 50
-234 99 -635 232 -235 78 -420 145 -468 171 -173 90 -243 229 -206 408 25 120
77 186 193 245 163 82 468 80 634 -4 103 -53 181 -171 215 -327 l19 -83 351 0
350 0 -8 68 c-34 287 -133 502 -309 672 -168 163 -407 271 -685 310 -109 15
-341 20 -447 10z"/>
</g>
</svg>
